<mxfile host="app.diagrams.net" agent="Mozilla/5.0 (Macintosh; Intel Mac OS X 10_15_7) AppleWebKit/537.36 (KHTML, like Gecko) Chrome/135.0.0.0 Safari/537.36" version="26.2.12">
  <diagram name="Page-1" id="iDyeGvS270tOZJRrcT7Q">
    <mxGraphModel dx="1698" dy="1325" grid="1" gridSize="10" guides="1" tooltips="1" connect="1" arrows="1" fold="1" page="1" pageScale="1" pageWidth="850" pageHeight="1100" math="0" shadow="0">
      <root>
        <mxCell id="0" />
        <mxCell id="1" parent="0" />
        <mxCell id="N_SQmaWzgcUi_tPX0hfl-1" style="edgeStyle=orthogonalEdgeStyle;rounded=0;orthogonalLoop=1;jettySize=auto;html=1;" edge="1" parent="1" source="RfMq5vbzq0BqZrSUWtXd-1" target="RfMq5vbzq0BqZrSUWtXd-7">
          <mxGeometry relative="1" as="geometry">
            <Array as="points">
              <mxPoint x="115" y="230" />
            </Array>
          </mxGeometry>
        </mxCell>
        <mxCell id="RfMq5vbzq0BqZrSUWtXd-1" value="Static Frontend" style="whiteSpace=wrap;html=1;aspect=fixed;" parent="1" vertex="1">
          <mxGeometry x="60" y="250" width="110" height="110" as="geometry" />
        </mxCell>
        <mxCell id="N_SQmaWzgcUi_tPX0hfl-3" style="edgeStyle=orthogonalEdgeStyle;rounded=0;orthogonalLoop=1;jettySize=auto;html=1;" edge="1" parent="1" source="RfMq5vbzq0BqZrSUWtXd-7" target="N_SQmaWzgcUi_tPX0hfl-2">
          <mxGeometry relative="1" as="geometry" />
        </mxCell>
        <mxCell id="RfMq5vbzq0BqZrSUWtXd-7" value="S3" style="sketch=0;outlineConnect=0;fontColor=#232F3E;gradientColor=none;strokeColor=#ffffff;fillColor=#232F3E;dashed=0;verticalLabelPosition=middle;verticalAlign=bottom;align=center;html=1;whiteSpace=wrap;fontSize=10;fontStyle=1;spacing=3;shape=mxgraph.aws4.productIcon;prIcon=mxgraph.aws4.s3;" parent="1" vertex="1">
          <mxGeometry x="130" y="80" width="80" height="100" as="geometry" />
        </mxCell>
        <mxCell id="RfMq5vbzq0BqZrSUWtXd-10" value="AI" style="rounded=0;whiteSpace=wrap;html=1;" parent="1" vertex="1">
          <mxGeometry x="130" y="490" width="180" height="180" as="geometry" />
        </mxCell>
        <mxCell id="RfMq5vbzq0BqZrSUWtXd-14" style="edgeStyle=orthogonalEdgeStyle;rounded=0;orthogonalLoop=1;jettySize=auto;html=1;" parent="1" source="RfMq5vbzq0BqZrSUWtXd-10" target="RfMq5vbzq0BqZrSUWtXd-16" edge="1">
          <mxGeometry relative="1" as="geometry">
            <mxPoint x="470" y="690" as="sourcePoint" />
            <mxPoint x="560" y="679" as="targetPoint" />
            <Array as="points" />
          </mxGeometry>
        </mxCell>
        <mxCell id="RfMq5vbzq0BqZrSUWtXd-16" value="&lt;span style=&quot;font-size: 12px; font-weight: 400; text-wrap-mode: nowrap;&quot;&gt;Program Profile&lt;/span&gt;" style="sketch=0;outlineConnect=0;fontColor=#232F3E;gradientColor=none;strokeColor=#ffffff;fillColor=#232F3E;dashed=0;verticalLabelPosition=middle;verticalAlign=bottom;align=center;html=1;whiteSpace=wrap;fontSize=10;fontStyle=1;spacing=3;shape=mxgraph.aws4.productIcon;prIcon=mxgraph.aws4.s3;" parent="1" vertex="1">
          <mxGeometry x="180" y="760" width="80" height="100" as="geometry" />
        </mxCell>
        <mxCell id="N_SQmaWzgcUi_tPX0hfl-2" value="Amazon Cloudfront" style="sketch=0;outlineConnect=0;fontColor=#232F3E;gradientColor=none;strokeColor=#ffffff;fillColor=#232F3E;dashed=0;verticalLabelPosition=middle;verticalAlign=bottom;align=center;html=1;whiteSpace=wrap;fontSize=10;fontStyle=1;spacing=3;shape=mxgraph.aws4.productIcon;prIcon=mxgraph.aws4.cloudfront;" vertex="1" parent="1">
          <mxGeometry x="250" y="75" width="80" height="110" as="geometry" />
        </mxCell>
        <mxCell id="N_SQmaWzgcUi_tPX0hfl-8" style="edgeStyle=orthogonalEdgeStyle;rounded=0;orthogonalLoop=1;jettySize=auto;html=1;" edge="1" parent="1" source="N_SQmaWzgcUi_tPX0hfl-4" target="RfMq5vbzq0BqZrSUWtXd-10">
          <mxGeometry relative="1" as="geometry">
            <Array as="points">
              <mxPoint x="540" y="370" />
              <mxPoint x="220" y="370" />
            </Array>
          </mxGeometry>
        </mxCell>
        <mxCell id="N_SQmaWzgcUi_tPX0hfl-33" value="Analyze" style="edgeLabel;html=1;align=center;verticalAlign=middle;resizable=0;points=[];" vertex="1" connectable="0" parent="N_SQmaWzgcUi_tPX0hfl-8">
          <mxGeometry x="-0.7205" y="1" relative="1" as="geometry">
            <mxPoint as="offset" />
          </mxGeometry>
        </mxCell>
        <mxCell id="N_SQmaWzgcUi_tPX0hfl-9" style="edgeStyle=orthogonalEdgeStyle;rounded=0;orthogonalLoop=1;jettySize=auto;html=1;" edge="1" parent="1" source="N_SQmaWzgcUi_tPX0hfl-4" target="N_SQmaWzgcUi_tPX0hfl-10">
          <mxGeometry relative="1" as="geometry">
            <mxPoint x="760" y="420" as="targetPoint" />
            <Array as="points">
              <mxPoint x="761" y="115" />
              <mxPoint x="761" y="495" />
            </Array>
          </mxGeometry>
        </mxCell>
        <mxCell id="N_SQmaWzgcUi_tPX0hfl-19" value="GET" style="edgeLabel;html=1;align=center;verticalAlign=middle;resizable=0;points=[];" vertex="1" connectable="0" parent="N_SQmaWzgcUi_tPX0hfl-9">
          <mxGeometry x="0.3185" y="-1" relative="1" as="geometry">
            <mxPoint y="1" as="offset" />
          </mxGeometry>
        </mxCell>
        <mxCell id="N_SQmaWzgcUi_tPX0hfl-14" style="edgeStyle=orthogonalEdgeStyle;rounded=0;orthogonalLoop=1;jettySize=auto;html=1;" edge="1" parent="1" source="N_SQmaWzgcUi_tPX0hfl-4" target="N_SQmaWzgcUi_tPX0hfl-13">
          <mxGeometry relative="1" as="geometry">
            <Array as="points">
              <mxPoint x="700" y="150" />
            </Array>
          </mxGeometry>
        </mxCell>
        <mxCell id="N_SQmaWzgcUi_tPX0hfl-32" value="LOGIN&lt;div&gt;&lt;br&gt;&lt;/div&gt;" style="edgeLabel;html=1;align=center;verticalAlign=middle;resizable=0;points=[];" vertex="1" connectable="0" parent="N_SQmaWzgcUi_tPX0hfl-14">
          <mxGeometry x="0.1176" y="-1" relative="1" as="geometry">
            <mxPoint as="offset" />
          </mxGeometry>
        </mxCell>
        <mxCell id="N_SQmaWzgcUi_tPX0hfl-25" style="edgeStyle=orthogonalEdgeStyle;rounded=0;orthogonalLoop=1;jettySize=auto;html=1;" edge="1" parent="1" source="N_SQmaWzgcUi_tPX0hfl-4" target="N_SQmaWzgcUi_tPX0hfl-30">
          <mxGeometry relative="1" as="geometry">
            <mxPoint x="955" y="530" as="targetPoint" />
          </mxGeometry>
        </mxCell>
        <mxCell id="N_SQmaWzgcUi_tPX0hfl-26" value="POST" style="edgeLabel;html=1;align=center;verticalAlign=middle;resizable=0;points=[];" vertex="1" connectable="0" parent="N_SQmaWzgcUi_tPX0hfl-25">
          <mxGeometry x="0.2453" y="1" relative="1" as="geometry">
            <mxPoint as="offset" />
          </mxGeometry>
        </mxCell>
        <mxCell id="N_SQmaWzgcUi_tPX0hfl-4" value="" style="strokeWidth=1;shadow=0;dashed=0;align=center;html=1;shape=mxgraph.mockup.containers.browserWindow;rSize=0;strokeColor=#666666;strokeColor2=#008cff;strokeColor3=#c4c4c4;mainText=,;recursiveResize=0;" vertex="1" parent="1">
          <mxGeometry x="400" y="20" width="280" height="189" as="geometry" />
        </mxCell>
        <mxCell id="N_SQmaWzgcUi_tPX0hfl-5" value="Page 1" style="strokeWidth=1;shadow=0;dashed=0;align=center;html=1;shape=mxgraph.mockup.containers.anchor;fontSize=17;fontColor=#666666;align=left;whiteSpace=wrap;" vertex="1" parent="N_SQmaWzgcUi_tPX0hfl-4">
          <mxGeometry x="60" y="12" width="110" height="26" as="geometry" />
        </mxCell>
        <mxCell id="N_SQmaWzgcUi_tPX0hfl-6" value="pulse-tact.com" style="strokeWidth=1;shadow=0;dashed=0;align=center;html=1;shape=mxgraph.mockup.containers.anchor;rSize=0;fontSize=17;fontColor=#666666;align=left;" vertex="1" parent="N_SQmaWzgcUi_tPX0hfl-4">
          <mxGeometry x="130" y="60" width="250" height="26" as="geometry" />
        </mxCell>
        <mxCell id="N_SQmaWzgcUi_tPX0hfl-7" style="edgeStyle=orthogonalEdgeStyle;rounded=0;orthogonalLoop=1;jettySize=auto;html=1;entryX=0.136;entryY=0.577;entryDx=0;entryDy=0;entryPerimeter=0;" edge="1" parent="1" source="N_SQmaWzgcUi_tPX0hfl-2" target="N_SQmaWzgcUi_tPX0hfl-4">
          <mxGeometry relative="1" as="geometry" />
        </mxCell>
        <mxCell id="N_SQmaWzgcUi_tPX0hfl-11" style="edgeStyle=orthogonalEdgeStyle;rounded=0;orthogonalLoop=1;jettySize=auto;html=1;" edge="1" parent="1" source="N_SQmaWzgcUi_tPX0hfl-10" target="N_SQmaWzgcUi_tPX0hfl-12">
          <mxGeometry relative="1" as="geometry">
            <mxPoint x="710" y="590" as="targetPoint" />
          </mxGeometry>
        </mxCell>
        <mxCell id="N_SQmaWzgcUi_tPX0hfl-10" value="Amazon API Gateway" style="sketch=0;outlineConnect=0;fontColor=#232F3E;gradientColor=none;strokeColor=#ffffff;fillColor=#232F3E;dashed=0;verticalLabelPosition=middle;verticalAlign=bottom;align=center;html=1;whiteSpace=wrap;fontSize=10;fontStyle=1;spacing=3;shape=mxgraph.aws4.productIcon;prIcon=mxgraph.aws4.api_gateway;" vertex="1" parent="1">
          <mxGeometry x="670" y="440" width="80" height="110" as="geometry" />
        </mxCell>
        <mxCell id="N_SQmaWzgcUi_tPX0hfl-12" value="AWS Lambda" style="sketch=0;outlineConnect=0;fontColor=#232F3E;gradientColor=none;strokeColor=#ffffff;fillColor=#232F3E;dashed=0;verticalLabelPosition=middle;verticalAlign=bottom;align=center;html=1;whiteSpace=wrap;fontSize=10;fontStyle=1;spacing=3;shape=mxgraph.aws4.productIcon;prIcon=mxgraph.aws4.lambda;" vertex="1" parent="1">
          <mxGeometry x="510" y="550" width="80" height="100" as="geometry" />
        </mxCell>
        <mxCell id="N_SQmaWzgcUi_tPX0hfl-13" value="Amazon Cognito" style="sketch=0;outlineConnect=0;fontColor=#232F3E;gradientColor=none;strokeColor=#ffffff;fillColor=#232F3E;dashed=0;verticalLabelPosition=middle;verticalAlign=bottom;align=center;html=1;whiteSpace=wrap;fontSize=10;fontStyle=1;spacing=3;shape=mxgraph.aws4.productIcon;prIcon=mxgraph.aws4.cognito;" vertex="1" parent="1">
          <mxGeometry x="660" y="300" width="80" height="110" as="geometry" />
        </mxCell>
        <mxCell id="N_SQmaWzgcUi_tPX0hfl-16" style="edgeStyle=orthogonalEdgeStyle;rounded=0;orthogonalLoop=1;jettySize=auto;html=1;" edge="1" parent="1" source="N_SQmaWzgcUi_tPX0hfl-15" target="N_SQmaWzgcUi_tPX0hfl-12">
          <mxGeometry relative="1" as="geometry">
            <Array as="points">
              <mxPoint x="450" y="750" />
              <mxPoint x="550" y="750" />
            </Array>
          </mxGeometry>
        </mxCell>
        <mxCell id="N_SQmaWzgcUi_tPX0hfl-28" style="edgeStyle=orthogonalEdgeStyle;rounded=0;orthogonalLoop=1;jettySize=auto;html=1;" edge="1" parent="1" source="N_SQmaWzgcUi_tPX0hfl-15" target="N_SQmaWzgcUi_tPX0hfl-30">
          <mxGeometry relative="1" as="geometry">
            <mxPoint x="450" y="770" as="sourcePoint" />
            <mxPoint x="1100" y="490" as="targetPoint" />
            <Array as="points">
              <mxPoint x="450" y="930" />
              <mxPoint x="1100" y="930" />
            </Array>
          </mxGeometry>
        </mxCell>
        <mxCell id="N_SQmaWzgcUi_tPX0hfl-15" value="&lt;span style=&quot;font-size: 12px; font-weight: 400; text-wrap-mode: nowrap;&quot;&gt;Program Profile&lt;/span&gt;" style="sketch=0;outlineConnect=0;fontColor=#232F3E;gradientColor=none;strokeColor=#ffffff;fillColor=#232F3E;dashed=0;verticalLabelPosition=middle;verticalAlign=bottom;align=center;html=1;whiteSpace=wrap;fontSize=10;fontStyle=1;spacing=3;shape=mxgraph.aws4.productIcon;prIcon=mxgraph.aws4.s3;" vertex="1" parent="1">
          <mxGeometry x="410" y="780" width="80" height="100" as="geometry" />
        </mxCell>
        <mxCell id="N_SQmaWzgcUi_tPX0hfl-17" value="UserProfile" style="sketch=0;outlineConnect=0;fontColor=#232F3E;gradientColor=none;strokeColor=#ffffff;fillColor=#232F3E;dashed=0;verticalLabelPosition=middle;verticalAlign=bottom;align=center;html=1;whiteSpace=wrap;fontSize=10;fontStyle=1;spacing=3;shape=mxgraph.aws4.productIcon;prIcon=mxgraph.aws4.s3;" vertex="1" parent="1">
          <mxGeometry x="630" y="780" width="80" height="100" as="geometry" />
        </mxCell>
        <mxCell id="N_SQmaWzgcUi_tPX0hfl-18" style="edgeStyle=orthogonalEdgeStyle;rounded=0;orthogonalLoop=1;jettySize=auto;html=1;" edge="1" parent="1" source="N_SQmaWzgcUi_tPX0hfl-17" target="N_SQmaWzgcUi_tPX0hfl-12">
          <mxGeometry relative="1" as="geometry">
            <mxPoint x="460" y="790" as="sourcePoint" />
            <mxPoint x="560" y="660" as="targetPoint" />
            <Array as="points">
              <mxPoint x="670" y="750" />
              <mxPoint x="560" y="750" />
            </Array>
          </mxGeometry>
        </mxCell>
        <mxCell id="N_SQmaWzgcUi_tPX0hfl-27" style="edgeStyle=orthogonalEdgeStyle;rounded=0;orthogonalLoop=1;jettySize=auto;html=1;" edge="1" parent="1" source="N_SQmaWzgcUi_tPX0hfl-30" target="N_SQmaWzgcUi_tPX0hfl-17">
          <mxGeometry relative="1" as="geometry">
            <mxPoint x="930" y="570" as="sourcePoint" />
            <Array as="points">
              <mxPoint x="930" y="550" />
              <mxPoint x="930" y="810" />
            </Array>
          </mxGeometry>
        </mxCell>
        <mxCell id="N_SQmaWzgcUi_tPX0hfl-30" value="AWS Lambda" style="sketch=0;outlineConnect=0;fontColor=#232F3E;gradientColor=none;strokeColor=#ffffff;fillColor=#232F3E;dashed=0;verticalLabelPosition=middle;verticalAlign=bottom;align=center;html=1;whiteSpace=wrap;fontSize=10;fontStyle=1;spacing=3;shape=mxgraph.aws4.productIcon;prIcon=mxgraph.aws4.lambda;" vertex="1" parent="1">
          <mxGeometry x="1050" y="500" width="80" height="100" as="geometry" />
        </mxCell>
      </root>
    </mxGraphModel>
  </diagram>
</mxfile>
